SplineFontDB: 3.2
FontName: Arial-Black
FullName: Arial Black
FamilyName: Arial Black
Weight: Black
Copyright: (c) 2008 The Monotype Corporation. All Rights Reserved.
Version: 5.06
ItalicAngle: 0
UnderlinePosition: -317
UnderlineWidth: 123
Ascent: 1638
Descent: 410
InvalidEm: 0
sfntRevision: 0x00050f5c
LayerCount: 2
Layer: 0 1 "Back" 1
Layer: 1 1 "Fore" 0
XUID: [1021 816 2041383085 14594098]
StyleMap: 0x0040
FSType: 8
OS2Version: 1
OS2_WeightWidthSlopeOnly: 0
OS2_UseTypoMetrics: 0
CreationTime: 690753652
ModificationTime: 1590647804
PfmFamily: 17
TTFWeight: 900
TTFWidth: 5
LineGap: 0
VLineGap: 0
Panose: 2 11 10 4 2 1 2 2 2 4
OS2TypoAscent: 1466
OS2TypoAOffset: 0
OS2TypoDescent: 434
OS2TypoDOffset: 0
OS2TypoLinegap: 291
OS2WinAscent: 2254
OS2WinAOffset: 0
OS2WinDescent: 634
OS2WinDOffset: 0
HheadAscent: 2254
HheadAOffset: 0
HheadDescent: -634
HheadDOffset: 0
OS2SubXSize: 1434
OS2SubYSize: 1331
OS2SubXOff: 0
OS2SubYOff: 130
OS2SupXSize: 1434
OS2SupYSize: 1331
OS2SupXOff: 0
OS2SupYOff: 439
OS2StrikeYSize: 102
OS2StrikeYPos: 530
OS2FamilyClass: 2053
OS2Vendor: 'TMC '
OS2CodePages: 2000009f.dfd70000
OS2UnicodeRanges: 00000287.00000000.00000000.00000000
Lookup: 1 0 0 "'locl' Localized Forms in Latin lookup 0" { "'locl' Localized Forms in Latin lookup 0 subtable"  } ['locl' ('latn' <'ROM ' > ) ]
Lookup: 258 0 0 "'kern' Horizontal Kerning in Latin lookup 0" { "'kern' Horizontal Kerning in Latin lookup 0 subtable"  } ['kern' ('DFLT' <'dflt' > 'latn' <'dflt' > ) ]
DEI: 91125
TtTable: prep
NPUSHB
 30
 30
 120
 22
 29
 119
 22
 28
 118
 22
 27
 117
 22
 26
 116
 22
 25
 115
 22
 207
 110
 207
 111
 2
 143
 110
 128
 111
 2
 112
 22
PUSHW_1
 2048
NPUSHB
 29
 29
 108
 111
 22
 23
 28
 108
 111
 23
 27
 111
 108
 127
 108
 2
 108
 111
 25
 107
 110
 22
 27
 107
 110
 127
 114
 26
 106
 20
PUSHW_1
 2048
NPUSHB
 255
 29
 102
 105
 20
 21
 28
 102
 105
 21
 27
 143
 102
 1
 102
 105
 25
 101
 104
 20
 27
 32
 183
 80
 183
 128
 183
 176
 183
 224
 183
 5
 31
 101
 1
 101
 104
 133

StartChar: exclam
Encoding: 33 33 1
Width: 682
GlyphClass: 2
Flags: W
LayerCount: 2
Fore
SplineSet
124 1466 m 1,0,-1
 559 1466 l 1,1,-1
 559 1132 l 1,2,-1
 475 461 l 1,3,-1
 206 461 l 1,4,-1
 124 1132 l 1,5,-1
 124 1466 l 1,0,-1
139 359 m 1,6,-1
 545 359 l 1,7,-1
 545 0 l 1,8,-1
 139 0 l 1,9,-1
 139 359 l 1,6,-1
EndSplineSet
Validated: 1
EndChar

StartChar: numbersign
Encoding: 35 35 3
Width: 1352
GlyphClass: 2
Flags: W
LayerCount: 2
Fore
SplineSet
253 604 m 1,0,-1
 305 857 l 1,1,-1
 60 857 l 1,2,-1
 60 1133 l 1,3,-1
 360 1133 l 1,4,-1
 431 1491 l 1,5,-1
 716 1491 l 1,6,-1
 643 1133 l 1,7,-1
 862 1133 l 1,8,-1
 934 1491 l 1,9,-1
 1218 1491 l 1,10,-1
 1148 1133 l 1,11,-1
 1285 1133 l 1,12,-1
 1285 857 l 1,13,-1
 1092 857 l 1,14,-1
 1041 604 l 1,15,-1
 1285 604 l 1,16,-1
 1285 328 l 1,17,-1
 986 328 l 1,18,-1
 915 -24 l 1,19,-1
 630 -24 l 1,20,-1
 700 328 l 1,21,-1
 482 328 l 1,22,-1
 410 -24 l 1,23,-1
 127 -24 l 1,24,-1
 200 328 l 1,25,-1
 60 328 l 1,26,-1
 60 604 l 1,27,-1
 253 604 l 1,0,-1
537 604 m 1,28,-1
 756 604 l 1,29,-1
 808 857 l 1,30,-1
 590 857 l 1,31,-1
 537 604 l 1,28,-1
EndSplineSet
Validated: 1
EndChar

StartChar: dollar
Encoding: 36 36 4
Width: 1366
GlyphClass: 2
Flags: W
LayerCount: 2
Fore
SplineSet
1250 1121 m 1,0,-1
 878 1062 l 1,1,2
 850 1133 850 1133 827.5 1160.5 c 128,-1,3
 805 1188 805 1188 753 1216 c 1,4,-1
 753 927 l 1,5,6
 1057 846 1057 846 1159 756 c 0,7,8
 1294 635 1294 635 1294 449 c 0,9,10
 1294 340 1294 340 1245.5 249 c 128,-1,11
 1197 158 1197 158 1121.5 97 c 128,-1,12
 1046 36 1046 36 961 8.5 c 128,-1,13
 876 -19 876 -19 753 -24 c 1,14,-1
 753 -213 l 1,15,-1
 607 -213 l 1,16,-1
 607 -24 l 1,17,18
 460 -11 460 -11 368.5 23.5 c 128,-1,19
 277 58 277 58 210.5 119 c 128,-1,20
 144 180 144 180 108 250.5 c 128,-1,21
 72 321 72 321 54 421 c 1,22,-1
 458 468 l 1,23,24
 476 369 476 369 506.5 325 c 128,-1,25
 537 281 537 281 607 247 c 1,26,-1
 607 600 l 1,27,28
 405 656 405 656 320.5 697 c 128,-1,29
 236 738 236 738 174 828.5 c 128,-1,30
 112 919 112 919 112 1049 c 0,31,32
 112 1227 112 1227 236.5 1346.5 c 128,-1,33
 361 1466 361 1466 607 1479 c 1,34,-1
 607 1578 l 1,35,-1
 753 1578 l 1,36,-1
 753 1479 l 1,37,38
 977 1465 977 1465 1095.5 1373 c 128,-1,39
 1214 1281 1214 1281 1250 1121 c 1,0,-1
607 1221 m 1,40,41
 543 1200 543 1200 518 1169 c 128,-1,42
 493 1138 493 1138 493 1096 c 0,43,44
 493 1052 493 1052 518.5 1019.5 c 128,-1,45
 544 987 544 987 607 965 c 1,46,-1
 607 1221 l 1,40,41
753 237 m 1,47,48
 838 256 838 256 877.5 299.5 c 128,-1,49
 917 343 917 343 917 397 c 0,50,51
 917 444 917 444 883.5 483.5 c 128,-1,52
 850 523 850 523 753 557 c 1,53,-1
 753 237 l 1,47,48
EndSplineSet
Validated: 1
EndChar

StartChar: percent
Encoding: 37 37 5
Width: 2048
GlyphClass: 2
Flags: W
LayerCount: 2
Fore
SplineSet
1344 1491 m 1,0,-1
 1555 1491 l 1,1,-1
 708 -75 l 1,2,-1
 499 -75 l 1,3,-1
 1344 1491 l 1,0,-1
99 1106 m 0,4,5
 99 1208 99 1208 143.5 1300 c 128,-1,6
 188 1392 188 1392 279.5 1441.5 c 128,-1,7
 371 1491 371 1491 496 1491 c 0,8,9
 680 1491 680 1491 786 1386 c 128,-1,10
 892 1281 892 1281 892 1106 c 0,11,12
 892 930 892 930 786 825 c 128,-1,13
 680 720 680 720 496 720 c 0,14,15
 371 720 371 720 279.5 769.5 c 128,-1,16
 188 819 188 819 143.5 911 c 128,-1,17
 99 1003 99 1003 99 1106 c 0,4,5
380 1104 m 256,18,19
 380 980 380 980 420 924 c 0,20,21
 446 887 446 887 496 887 c 256,22,23
 546 887 546 887 571 924 c 0,24,25
 611 980 611 980 611 1104 c 0,26,27
 611 1227 611 1227 571 1284 c 0,28,29
 546 1320 546 1320 496 1320 c 256,30,31
 446 1320 446 1320 420 1284 c 0,32,33
 380 1228 380 1228 380 1104 c 256,18,19
1156 313 m 256,34,35
 1156 416 1156 416 1200 507.5 c 128,-1,36
 1244 599 1244 599 1336 649 c 128,-1,37
 1428 699 1428 699 1552 699 c 0,38,39
 1737 699 1737 699 1843 593.5 c 128,-1,40
 1949 488 1949 488 1949 313 c 256,41,42
 1949 138 1949 138 1843 32.5 c 128,-1,43
 1737 -73 1737 -73 1552 -73 c 0,44,45
 1428 -73 1428 -73 1336 -23 c 128,-1,46
 1244 27 1244 27 1200 118.5 c 128,-1,47
 1156 210 1156 210 1156 313 c 256,34,35
1437 311 m 256,48,49
 1437 187 1437 187 1477 131 c 0,50,51
 1502 95 1502 95 1552 95 c 256,52,53
 1602 95 1602 95 1628 131 c 0,54,55
 1668 187 1668 187 1668 311 c 256,56,57
 1668 435 1668 435 1628 492 c 0,58,59
 1602 528 1602 528 1552 528 c 256,60,61
 1502 528 1502 528 1477 491 c 0,62,63
 1437 435 1437 435 1437 311 c 256,48,49
EndSplineSet
Validated: 1
EndChar

StartChar: ampersand
Encoding: 38 38 6
Width: 1821
GlyphClass: 2
Flags: W
LayerCount: 2
Fore
SplineSet
1307 713 m 1,0,-1
 1625 642 l 1,1,2
 1600 554 1600 554 1577 501 c 128,-1,3
 1554 448 1554 448 1512 376 c 1,4,-1
 1665 271 l 2,5,6
 1693 253 1693 253 1737 228 c 1,7,-1
 1518 -24 l 1,8,9
 1458 8 1458 8 1393.5 50 c 128,-1,10
 1329 92 1329 92 1278 122 c 1,11,12
 1172 52 1172 52 1066 20 c 0,13,14
 919 -24 919 -24 732 -24 c 0,15,16
 439 -24 439 -24 296 98 c 128,-1,17
 153 220 153 220 153 394 c 0,18,19
 153 519 153 519 237 630.5 c 128,-1,20
 321 742 321 742 512 819 c 1,21,22
 432 916 432 916 402 987.5 c 128,-1,23
 372 1059 372 1059 372 1133 c 0,24,25
 372 1289 372 1289 491 1390 c 128,-1,26
 610 1491 610 1491 852 1491 c 0,27,28
 1099 1491 1099 1491 1215 1395 c 128,-1,29
 1331 1299 1331 1299 1331 1165 c 0,30,31
 1331 1090 1331 1090 1295.5 1021 c 128,-1,32
 1260 952 1260 952 1210 909 c 128,-1,33
 1160 866 1160 866 1031 781 c 1,34,35
 1138 674 1138 674 1254 582 c 1,36,37
 1285 644 1285 644 1307 713 c 1,0,-1
839 970 m 1,38,39
 918 1013 918 1013 961 1063.5 c 128,-1,40
 1004 1114 1004 1114 1004 1159 c 0,41,42
 1004 1206 1004 1206 968 1238.5 c 128,-1,43
 932 1271 932 1271 869 1271 c 0,44,45
 807 1271 807 1271 768 1235 c 128,-1,46
 729 1199 729 1199 729 1150 c 0,47,48
 729 1088 729 1088 839 970 c 1,38,39
694 614 m 1,49,50
 610 555 610 555 582.5 513 c 128,-1,51
 555 471 555 471 555 424 c 0,52,53
 555 351 555 351 618 294 c 128,-1,54
 681 237 681 237 782 237 c 0,55,56
 891 237 891 237 1027 322 c 1,57,58
 897 422 897 422 694 614 c 1,49,50
EndSplineSet
Validated: 1
EndChar

StartChar: quotesingle
Encoding: 39 39 7
Width: 569
GlyphClass: 2
Flags: W
LayerCount: 2
Fore
SplineSet
85 1466 m 1,0,-1
 491 1466 l 1,1,-1
 491 1224 l 1,2,-1
 427 927 l 1,3,-1
 151 927 l 1,4,-1
 85 1224 l 1,5,-1
 85 1466 l 1,0,-1
EndSplineSet
Validated: 1
EndChar

StartChar: parenleft
Encoding: 40 40 8
Width: 797
GlyphClass: 2
Flags: W
LayerCount: 2
Fore
SplineSet
463 1491 m 1,0,-1
 717 1491 l 1,1,2
 586 1201 586 1201 528 955 c 0,3,4
 479 746 479 746 479 509 c 0,5,6
 479 52 479 52 717 -431 c 1,7,-1
 463 -431 l 1,8,9
 269 -156 269 -156 190.5 66.5 c 128,-1,10
 112 289 112 289 112 533 c 0,11,12
 112 786 112 786 194.5 1014 c 128,-1,13
 277 1242 277 1242 463 1491 c 1,0,-1
EndSplineSet
Validated: 1
EndChar

StartChar: asterisk
Encoding: 42 42 10
Width: 1139
GlyphClass: 2
Flags: W
LayerCount: 2
Fore
SplineSet
453 1491 m 1,0,-1
 674 1491 l 1,1,-1
 656 1340 l 2,2,3
 650 1285 650 1285 631 1215 c 1,4,5
 669 1234 669 1234 681 1241 c 0,6,7
 723 1264 723 1264 745 1274 c 2,8,-1
 884 1340 l 1,9,-1
 953 1129 l 1,10,-1
 799 1097 l 2,11,12
 757 1089 757 1089 674 1086 c 1,13,14
 730 1042 730 1042 763 1006 c 2,15,-1
 867 893 l 1,16,-1
 687 758 l 1,17,-1
 613 893 l 2,18,19
 597 922 597 922 561 1006 c 1,20,21
 522 914 522 914 509 893 c 2,22,-1
 434 758 l 1,23,-1
 249 893 l 1,24,-1
 361 1006 l 2,25,26
 408 1053 408 1053 453 1086 c 1,27,28
 407 1090 407 1090 332 1104 c 2,29,-1
 177 1129 l 1,30,-1
 249 1340 l 1,31,-1
 388 1277 l 2,32,33
 410 1267 410 1267 497 1215 c 1,34,35
 478 1299 478 1299 473 1340 c 2,36,-1
 453 1491 l 1,0,-1
EndSplineSet
Validated: 1
EndChar

StartChar: plus
Encoding: 43 43 11
Width: 1352
GlyphClass: 2
Flags: W
LayerCount: 2
Fore
SplineSet
127 894 m 1,0,-1
 510 894 l 1,1,-1
 510 1279 l 1,2,-1
 833 1279 l 1,3,-1
 833 894 l 1,4,-1
 1218 894 l 1,5,-1
 1218 570 l 1,6,-1
 833 570 l 1,7,-1
 833 187 l 1,8,-1
 510 187 l 1,9,-1
 510 570 l 1,10,-1
 127 570 l 1,11,-1
 127 894 l 1,0,-1
EndSplineSet
Validated: 1
EndChar

StartChar: comma
Encoding: 44 44 12
Width: 682
GlyphClass: 2
Flags: W
LayerCount: 2
Fore
SplineSet
124 404 m 1,0,-1
 559 404 l 1,1,-1
 559 69 l 2,2,3
 559 -116 559 -116 482 -223 c 128,-1,4
 405 -330 405 -330 219 -412 c 1,5,-1
 124 -234 l 1,6,7
 240 -180 240 -180 283.5 -126.5 c 128,-1,8
 327 -73 327 -73 332 0 c 1,9,-1
 124 0 l 1,10,-1
 124 404 l 1,0,-1
EndSplineSet
Validated: 1
EndChar

StartChar: period
Encoding: 46 46 13
Width: 682
GlyphClass: 2
Flags: W
LayerCount: 2
Fore
SplineSet
124 408 m 1,0,-1
 559 408 l 1,1,-1
 559 0 l 1,2,-1
 124 0 l 1,3,-1
 124 408 l 1,0,-1
EndSplineSet
Validated: 1
EndChar

StartChar: slash
Encoding: 47 47 14
Width: 569
GlyphClass: 2
Flags: W
LayerCount: 2
Fore
SplineSet
367 1491 m 1,0,-1
 575 1491 l 1,1,-1
 207 -24 l 1,2,-1
 1 -24 l 1,3,-1
 367 1491 l 1,0,-1
EndSplineSet
Validated: 1
EndChar

StartChar: zero
Encoding: 48 48 15
Width: 1366
GlyphClass: 2
Flags: W
LayerCount: 2
Fore
SplineSet
84 739 m 0,0,1
 84 1157 84 1157 234.5 1324 c 128,-1,2
 385 1491 385 1491 693 1491 c 0,3,4
 841 1491 841 1491 936 1454.5 c 128,-1,5
 1031 1418 1031 1418 1091 1359.5 c 128,-1,6
 1151 1301 1151 1301 1185.5 1236.5 c 128,-1,7
 1220 1172 1220 1172 1241 1086 c 0,8,9
 1282 922 1282 922 1282 744 c 0,10,11
 1282 345 1282 345 1147 160 c 128,-1,12
 1012 -25 1012 -25 682 -25 c 0,13,14
 497 -25 497 -25 383 34 c 128,-1,15
 269 93 269 93 196 207 c 0,16,17
 143 288 143 288 113.5 428.5 c 128,-1,18
 84 569 84 569 84 739 c 0,0,1
488 738 m 0,19,20
 488 458 488 458 537.5 355.5 c 128,-1,21
 587 253 587 253 681 253 c 0,22,23
 743 253 743 253 788.5 296.5 c 128,-1,24
 834 340 834 340 855.5 434 c 128,-1,25
 877 528 877 528 877 727 c 0,26,27
 877 1019 877 1019 827.5 1119.5 c 128,-1,28
 778 1220 778 1220 679 1220 c 0,29,30
 578 1220 578 1220 533 1117.5 c 128,-1,31
 488 1015 488 1015 488 738 c 0,19,20
EndSplineSet
Validated: 1
EndChar

StartChar: one
Encoding: 49 49 16
Width: 1366
GlyphClass: 2
Flags: W
LayerCount: 2
Fore
SplineSet
1007 1491 m 1,0,-1
 1007 0 l 1,1,-1
 595 0 l 1,2,-1
 595 977 l 1,3,4
 495 901 495 901 401.5 854 c 128,-1,5
 308 807 308 807 167 764 c 1,6,-1
 167 1098 l 1,7,8
 375 1165 375 1165 490 1259 c 128,-1,9
 605 1353 605 1353 670 1491 c 1,10,-1
 1007 1491 l 1,0,-1
EndSplineSet
Validated: 1
EndChar

StartChar: two
Encoding: 50 50 17
Width: 1366
GlyphClass: 2
Flags: W
LayerCount: 2
Fore
SplineSet
1276 0 m 1,0,-1
 54 0 l 1,1,2
 75 181 75 181 181.5 340.5 c 128,-1,3
 288 500 288 500 581 717 c 0,4,5
 760 850 760 850 810 919 c 128,-1,6
 860 988 860 988 860 1050 c 0,7,8
 860 1117 860 1117 810.5 1164.5 c 128,-1,9
 761 1212 761 1212 686 1212 c 0,10,11
 608 1212 608 1212 558.5 1163 c 128,-1,12
 509 1114 509 1114 492 990 c 1,13,-1
 84 1023 l 1,14,15
 108 1195 108 1195 172 1291.5 c 128,-1,16
 236 1388 236 1388 352.5 1439.5 c 128,-1,17
 469 1491 469 1491 675 1491 c 0,18,19
 890 1491 890 1491 1009.5 1442 c 128,-1,20
 1129 1393 1129 1393 1197.5 1291.5 c 128,-1,21
 1266 1190 1266 1190 1266 1064 c 0,22,23
 1266 930 1266 930 1187.5 808 c 128,-1,24
 1109 686 1109 686 902 540 c 0,25,26
 779 455 779 455 737.5 421 c 128,-1,27
 696 387 696 387 640 332 c 1,28,-1
 1276 332 l 1,29,-1
 1276 0 l 1,0,-1
EndSplineSet
Validated: 1
EndChar

StartChar: three
Encoding: 51 51 18
Width: 1366
GlyphClass: 2
Flags: W
LayerCount: 2
Fore
SplineSet
479 1042 m 1,0,-1
 94 1111 l 1,1,2
 142 1295 142 1295 278.5 1393 c 128,-1,3
 415 1491 415 1491 665 1491 c 0,4,5
 952 1491 952 1491 1080 1384 c 128,-1,6
 1208 1277 1208 1277 1208 1115 c 0,7,8
 1208 1020 1208 1020 1156 943 c 128,-1,9
 1104 866 1104 866 999 808 c 1,10,11
 1084 787 1084 787 1129 759 c 0,12,13
 1202 714 1202 714 1242.5 640.5 c 128,-1,14
 1283 567 1283 567 1283 465 c 0,15,16
 1283 337 1283 337 1216 219.5 c 128,-1,17
 1149 102 1149 102 1023 38.5 c 128,-1,18
 897 -25 897 -25 692 -25 c 0,19,20
 492 -25 492 -25 376.5 22 c 128,-1,21
 261 69 261 69 186.5 159.5 c 128,-1,22
 112 250 112 250 72 387 c 1,23,-1
 479 441 l 1,24,25
 503 318 503 318 553.5 270.5 c 128,-1,26
 604 223 604 223 682 223 c 0,27,28
 764 223 764 223 818.5 283 c 128,-1,29
 873 343 873 343 873 443 c 0,30,31
 873 545 873 545 820.5 601 c 128,-1,32
 768 657 768 657 678 657 c 0,33,34
 630 657 630 657 546 633 c 1,35,-1
 567 924 l 1,36,37
 601 919 601 919 620 919 c 0,38,39
 700 919 700 919 753.5 970 c 128,-1,40
 807 1021 807 1021 807 1091 c 0,41,42
 807 1158 807 1158 767 1198 c 128,-1,43
 727 1238 727 1238 657 1238 c 0,44,45
 585 1238 585 1238 540 1194.5 c 128,-1,46
 495 1151 495 1151 479 1042 c 1,0,-1
EndSplineSet
Validated: 1
EndChar

StartChar: four
Encoding: 52 52 19
Width: 1366
GlyphClass: 2
Flags: W
LayerCount: 2
Fore
SplineSet
784 274 m 1,0,-1
 42 274 l 1,1,-1
 42 609 l 1,2,-1
 784 1491 l 1,3,-1
 1139 1491 l 1,4,-1
 1139 590 l 1,5,-1
 1323 590 l 1,6,-1
 1323 274 l 1,7,-1
 1139 274 l 1,8,-1
 1139 0 l 1,9,-1
 784 0 l 1,10,-1
 784 274 l 1,0,-1
784 590 m 1,11,-1
 784 1051 l 1,12,-1
 392 590 l 1,13,-1
 784 590 l 1,11,-1
EndSplineSet
Validated: 1
EndChar

StartChar: five
Encoding: 53 53 20
Width: 1366
GlyphClass: 2
Flags: W
LayerCount: 2
Fore
SplineSet
249 1466 m 1,0,-1
 1216 1466 l 1,1,-1
 1216 1141 l 1,2,-1
 561 1141 l 1,3,-1
 526 921 l 1,4,5
 594 953 594 953 660.5 969 c 128,-1,6
 727 985 727 985 792 985 c 0,7,8
 1012 985 1012 985 1149 852 c 128,-1,9
 1286 719 1286 719 1286 517 c 0,10,11
 1286 375 1286 375 1215.5 244 c 128,-1,12
 1145 113 1145 113 1015.5 44 c 128,-1,13
 886 -25 886 -25 684 -25 c 0,14,15
 539 -25 539 -25 435.5 2.5 c 128,-1,16
 332 30 332 30 259.5 84.5 c 128,-1,17
 187 139 187 139 142 208 c 128,-1,18
 97 277 97 277 67 380 c 1,19,-1
 479 425 l 1,20,21
 494 326 494 326 549 274.5 c 128,-1,22
 604 223 604 223 680 223 c 0,23,24
 765 223 765 223 820.5 287.5 c 128,-1,25
 876 352 876 352 876 480 c 0,26,27
 876 611 876 611 820 672 c 128,-1,28
 764 733 764 733 671 733 c 0,29,30
 612 733 612 733 557 704 c 0,31,32
 516 683 516 683 467 628 c 1,33,-1
 120 678 l 1,34,-1
 249 1466 l 1,0,-1
EndSplineSet
Validated: 1
EndChar

StartChar: six
Encoding: 54 54 21
Width: 1366
GlyphClass: 2
Flags: W
LayerCount: 2
Fore
SplineSet
1263 1136 m 1,0,-1
 858 1086 l 1,1,2
 842 1171 842 1171 804.5 1206 c 128,-1,3
 767 1241 767 1241 712 1241 c 0,4,5
 613 1241 613 1241 558 1141 c 0,6,7
 518 1069 518 1069 499 833 c 1,8,9
 572 907 572 907 649 942.5 c 128,-1,10
 726 978 726 978 827 978 c 0,11,12
 1023 978 1023 978 1158.5 838 c 128,-1,13
 1294 698 1294 698 1294 483 c 0,14,15
 1294 338 1294 338 1225.5 218 c 128,-1,16
 1157 98 1157 98 1035.5 36.5 c 128,-1,17
 914 -25 914 -25 731 -25 c 0,18,19
 511 -25 511 -25 378 50 c 128,-1,20
 245 125 245 125 165.5 289.5 c 128,-1,21
 86 454 86 454 86 725 c 0,22,23
 86 1122 86 1122 253 1306.5 c 128,-1,24
 420 1491 420 1491 716 1491 c 0,25,26
 891 1491 891 1491 992.5 1450.5 c 128,-1,27
 1094 1410 1094 1410 1161 1332 c 128,-1,28
 1228 1254 1228 1254 1263 1136 c 1,0,-1
513 483 m 0,29,30
 513 364 513 364 573 296.5 c 128,-1,31
 633 229 633 229 720 229 c 0,32,33
 800 229 800 229 854 290 c 128,-1,34
 908 351 908 351 908 472 c 0,35,36
 908 596 908 596 852 661 c 128,-1,37
 796 726 796 726 713 726 c 0,38,39
 628 726 628 726 570.5 663 c 128,-1,40
 513 600 513 600 513 483 c 0,29,30
EndSplineSet
Validated: 1
EndChar

StartChar: seven
Encoding: 55 55 22
Width: 1366
GlyphClass: 2
Flags: W
LayerCount: 2
Fore
SplineSet
91 1466 m 1,0,-1
 1280 1466 l 1,1,-1
 1280 1191 l 1,2,3
 1125 1051 1125 1051 1021 888 c 0,4,5
 895 690 895 690 822 447 c 0,6,7
 764 258 764 258 744 0 c 1,8,-1
 338 0 l 1,9,10
 386 359 386 359 489 602 c 128,-1,11
 592 845 592 845 815 1122 c 1,12,-1
 91 1122 l 1,13,-1
 91 1466 l 1,0,-1
EndSplineSet
Validated: 1
EndChar

StartChar: eight
Encoding: 56 56 23
Width: 1366
GlyphClass: 2
Flags: W
LayerCount: 2
Fore
SplineSet
329 788 m 1,0,1
 233 839 233 839 189 902 c 0,2,3
 129 988 129 988 129 1100 c 0,4,5
 129 1284 129 1284 302 1401 c 0,6,7
 437 1491 437 1491 659 1491 c 0,8,9
 953 1491 953 1491 1093.5 1379 c 128,-1,10
 1234 1267 1234 1267 1234 1097 c 0,11,12
 1234 998 1234 998 1178 912 c 0,13,14
 1136 848 1136 848 1046 788 c 1,15,16
 1165 731 1165 731 1223.5 637 c 128,-1,17
 1282 543 1282 543 1282 429 c 0,18,19
 1282 319 1282 319 1231.5 223.5 c 128,-1,20
 1181 128 1181 128 1107.5 76 c 128,-1,21
 1034 24 1034 24 924.5 -0.5 c 128,-1,22
 815 -25 815 -25 691 -25 c 0,23,24
 458 -25 458 -25 335 30 c 128,-1,25
 212 85 212 85 148 192 c 128,-1,26
 84 299 84 299 84 431 c 0,27,28
 84 560 84 560 144 649.5 c 128,-1,29
 204 739 204 739 329 788 c 1,0,1
512 1076 m 0,30,31
 512 1000 512 1000 559.5 953.5 c 128,-1,32
 607 907 607 907 686 907 c 0,33,34
 756 907 756 907 801 953 c 128,-1,35
 846 999 846 999 846 1072 c 0,36,37
 846 1148 846 1148 799 1195.5 c 128,-1,38
 752 1243 752 1243 679 1243 c 0,39,40
 605 1243 605 1243 558.5 1196.5 c 128,-1,41
 512 1150 512 1150 512 1076 c 0,30,31
490 445 m 0,42,43
 490 348 490 348 549 286.5 c 128,-1,44
 608 225 608 225 684 225 c 0,45,46
 757 225 757 225 815 287.5 c 128,-1,47
 873 350 873 350 873 446 c 0,48,49
 873 543 873 543 814.5 605 c 128,-1,50
 756 667 756 667 679 667 c 0,51,52
 603 667 603 667 546.5 607 c 128,-1,53
 490 547 490 547 490 445 c 0,42,43
EndSplineSet
Validated: 1
EndChar

StartChar: nine
Encoding: 57 57 24
Width: 1366
GlyphClass: 2
Flags: W
LayerCount: 2
Fore
SplineSet
102 329 m 1,0,-1
 507 380 l 1,1,2
 523 295 523 295 561 260 c 128,-1,3
 599 225 599 225 654 225 c 0,4,5
 752 225 752 225 807 324 c 0,6,7
 847 397 847 397 867 633 c 1,8,9
 794 558 794 558 717 523 c 128,-1,10
 640 488 640 488 539 488 c 0,11,12
 342 488 342 488 206.5 628 c 128,-1,13
 71 768 71 768 71 982 c 0,14,15
 71 1128 71 1128 140 1248 c 128,-1,16
 209 1368 209 1368 330 1429.5 c 128,-1,17
 451 1491 451 1491 634 1491 c 0,18,19
 854 1491 854 1491 987 1415.5 c 128,-1,20
 1120 1340 1120 1340 1199.5 1175.5 c 128,-1,21
 1279 1011 1279 1011 1279 741 c 0,22,23
 1279 344 1279 344 1112 159.5 c 128,-1,24
 945 -25 945 -25 649 -25 c 0,25,26
 474 -25 474 -25 373 15.5 c 128,-1,27
 272 56 272 56 205 134 c 128,-1,28
 138 212 138 212 102 329 c 1,0,-1
852 983 m 0,29,30
 852 1102 852 1102 792 1169.5 c 128,-1,31
 732 1237 732 1237 646 1237 c 0,32,33
 565 1237 565 1237 511.5 1176 c 128,-1,34
 458 1115 458 1115 458 993 c 0,35,36
 458 870 458 870 513.5 805 c 128,-1,37
 569 740 569 740 652 740 c 0,38,39
 738 740 738 740 795 803 c 128,-1,40
 852 866 852 866 852 983 c 0,29,30
EndSplineSet
Validated: 1
EndChar

StartChar: colon
Encoding: 58 58 25
Width: 682
GlyphClass: 2
Flags: W
LayerCount: 2
Fore
SplineSet
124 1062 m 1,0,-1
 559 1062 l 1,1,-1
 559 654 l 1,2,-1
 124 654 l 1,3,-1
 124 1062 l 1,0,-1
124 408 m 1,4,-1
 559 408 l 1,5,-1
 559 0 l 1,6,-1
 124 0 l 1,7,-1
 124 408 l 1,4,-1
EndSplineSet
Validated: 1
EndChar

StartChar: less
Encoding: 60 60 26
Width: 1352
GlyphClass: 2
Flags: W
LayerCount: 2
Fore
SplineSet
1244 112 m 1,0,-1
 107 585 l 1,1,-1
 107 881 l 1,2,-1
 1244 1353 l 1,3,-1
 1244 998 l 1,4,-1
 553 732 l 1,5,-1
 1244 465 l 1,6,-1
 1244 112 l 1,0,-1
EndSplineSet
Validated: 1
EndChar

StartChar: equal
Encoding: 61 61 27
Width: 1352
GlyphClass: 2
Flags: W
LayerCount: 2
Fore
SplineSet
126 1141 m 1,0,-1
 1218 1141 l 1,1,-1
 1218 816 l 1,2,-1
 126 816 l 1,3,-1
 126 1141 l 1,0,-1
126 649 m 1,4,-1
 1218 649 l 1,5,-1
 1218 325 l 1,6,-1
 126 325 l 1,7,-1
 126 649 l 1,4,-1
EndSplineSet
Validated: 1
EndChar

StartChar: question
Encoding: 63 63 29
Width: 1251
GlyphClass: 2
Flags: W
LayerCount: 2
Fore
SplineSet
785 460 m 1,0,-1
 405 460 l 1,1,-1
 405 498 l 2,2,3
 405 595 405 595 427 655.5 c 128,-1,4
 449 716 449 716 492.5 766 c 128,-1,5
 536 816 536 816 688 942 c 0,6,7
 769 1008 769 1008 769 1063 c 256,8,9
 769 1118 769 1118 736.5 1148.5 c 128,-1,10
 704 1179 704 1179 638 1179 c 0,11,12
 567 1179 567 1179 520.5 1132 c 128,-1,13
 474 1085 474 1085 461 968 c 1,14,-1
 73 1016 l 1,15,16
 93 1230 93 1230 228.5 1360.5 c 128,-1,17
 364 1491 364 1491 644 1491 c 0,18,19
 862 1491 862 1491 996 1400 c 0,20,21
 1178 1277 1178 1277 1178 1072 c 0,22,23
 1178 987 1178 987 1131 908 c 128,-1,24
 1084 829 1084 829 939 715 c 0,25,26
 838 635 838 635 811.5 586.5 c 128,-1,27
 785 538 785 538 785 460 c 1,0,-1
392 359 m 1,28,-1
 799 359 l 1,29,-1
 799 0 l 1,30,-1
 392 0 l 1,31,-1
 392 359 l 1,28,-1
EndSplineSet
Validated: 1
EndChar

StartChar: at
Encoding: 64 64 30
Width: 1516
GlyphClass: 2
Flags: W
LayerCount: 2
Fore
SplineSet
1156 1148 m 1,0,-1
 1031 357 l 2,1,2
 1027 333 1027 333 1027 322 c 0,3,4
 1027 304 1027 304 1037 294 c 128,-1,5
 1047 284 1047 284 1067 284 c 0,6,7
 1113 284 1113 284 1171 325 c 0,8,9
 1257 385 1257 385 1312.5 498.5 c 128,-1,10
 1368 612 1368 612 1368 773 c 0,11,12
 1368 1037 1368 1037 1216.5 1190 c 128,-1,13
 1065 1343 1065 1343 810 1343 c 0,14,15
 622 1343 622 1343 467.5 1253 c 128,-1,16
 313 1163 313 1163 229.5 992 c 128,-1,17
 146 821 146 821 146 614 c 0,18,19
 146 292 146 292 327.5 103.5 c 128,-1,20
 509 -85 509 -85 796 -85 c 0,21,22
 936 -85 936 -85 1065.5 -38 c 128,-1,23
 1195 9 1195 9 1314 102 c 1,24,-1
 1519 102 l 1,25,26
 1437 5 1437 5 1363 -50 c 0,27,28
 1254 -131 1254 -131 1110 -182 c 128,-1,29
 966 -233 966 -233 800 -233 c 0,30,31
 569 -233 569 -233 385 -126 c 128,-1,32
 201 -19 201 -19 97.5 179 c 128,-1,33
 -6 377 -6 377 -6 615 c 0,34,35
 -6 865 -6 865 101.5 1069.5 c 128,-1,36
 209 1274 209 1274 387 1383 c 128,-1,37
 565 1492 565 1492 809 1492 c 0,38,39
 1124 1492 1124 1492 1321.5 1292 c 128,-1,40
 1519 1092 1519 1092 1519 775 c 0,41,42
 1519 587 1519 587 1442 431 c 128,-1,43
 1365 275 1365 275 1216 184 c 0,44,45
 1101 114 1101 114 1000 114 c 0,46,47
 940 114 940 114 902 142 c 128,-1,48
 864 170 864 170 846 231 c 1,49,50
 779 166 779 166 724 139.5 c 128,-1,51
 669 113 669 113 605 113 c 0,52,53
 472 113 472 113 376 224 c 128,-1,54
 280 335 280 335 280 542 c 0,55,56
 280 787 280 787 403 985 c 128,-1,57
 526 1183 526 1183 708 1183 c 0,58,59
 779 1183 779 1183 833.5 1150 c 128,-1,60
 888 1117 888 1117 943 1035 c 1,61,-1
 961 1148 l 1,62,-1
 1156 1148 l 1,0,-1
490 493 m 0,63,64
 490 374 490 374 541 308 c 0,65,66
 579 259 579 259 638 259 c 0,67,68
 702 259 702 259 754 313.5 c 128,-1,69
 806 368 806 368 845 531 c 128,-1,70
 884 694 884 694 884 824 c 0,71,72
 884 922 884 922 842 972 c 128,-1,73
 800 1022 800 1022 742 1022 c 0,74,75
 676 1022 676 1022 626 972 c 0,76,77
 559 905 559 905 524.5 759.5 c 128,-1,78
 490 614 490 614 490 493 c 0,63,64
EndSplineSet
Validated: 1
EndChar

StartChar: A
Encoding: 65 65 31
Width: 1593
GlyphClass: 2
Flags: W
LayerCount: 2
Fore
SplineSet
1052 242 m 1,0,-1
 536 242 l 1,1,-1
 465 0 l 1,2,-1
 2 0 l 1,3,-1
 553 1466 l 1,4,-1
 1047 1466 l 1,5,-1
 1598 0 l 1,6,-1
 1124 0 l 1,7,-1
 1052 242 l 1,0,-1
957 559 m 1,8,-1
 795 1086 l 1,9,-1
 634 559 l 1,10,-1
 957 559 l 1,8,-1
EndSplineSet
Validated: 1
EndChar

StartChar: B
Encoding: 66 66 32
Width: 1593
GlyphClass: 2
Flags: W
LayerCount: 2
Fore
SplineSet
151 1466 m 1,0,-1
 999 1466 l 2,1,2
 1211 1466 1211 1466 1324.5 1361 c 128,-1,3
 1438 1256 1438 1256 1438 1101 c 0,4,5
 1438 971 1438 971 1357 878 c 0,6,7
 1303 816 1303 816 1199 780 c 1,8,9
 1357 742 1357 742 1431.5 649.5 c 128,-1,10
 1506 557 1506 557 1506 417 c 0,11,12
 1506 303 1506 303 1453 212 c 128,-1,13
 1400 121 1400 121 1308 68 c 0,14,15
 1251 35 1251 35 1136 20 c 0,16,17
 983 0 983 0 933 0 c 2,18,-1
 151 0 l 1,19,-1
 151 1466 l 1,0,-1
608 891 m 1,20,-1
 805 891 l 2,21,22
 911 891 911 891 952.5 927.5 c 128,-1,23
 994 964 994 964 994 1033 c 0,24,25
 994 1097 994 1097 952.5 1133 c 128,-1,26
 911 1169 911 1169 808 1169 c 2,27,-1
 608 1169 l 1,28,-1
 608 891 l 1,20,-1
608 315 m 1,29,-1
 839 315 l 2,30,31
 956 315 956 315 1004 356.5 c 128,-1,32
 1052 398 1052 398 1052 468 c 0,33,34
 1052 533 1052 533 1004.5 572.5 c 128,-1,35
 957 612 957 612 838 612 c 2,36,-1
 608 612 l 1,37,-1
 608 315 l 1,29,-1
EndSplineSet
Validated: 1
EndChar

StartChar: C
Encoding: 67 67 33
Width: 1593
GlyphClass: 2
Flags: W
LayerCount: 2
Fore
SplineSet
1126 599 m 1,0,-1
 1523 479 l 1,1,2
 1483 312 1483 312 1397 200 c 128,-1,3
 1311 88 1311 88 1183.5 31 c 128,-1,4
 1056 -26 1056 -26 859 -26 c 0,5,6
 620 -26 620 -26 468.5 43.5 c 128,-1,7
 317 113 317 113 207 288 c 128,-1,8
 97 463 97 463 97 736 c 0,9,10
 97 1100 97 1100 290.5 1295.5 c 128,-1,11
 484 1491 484 1491 838 1491 c 0,12,13
 1115 1491 1115 1491 1273.5 1379 c 128,-1,14
 1432 1267 1432 1267 1509 1035 c 1,15,-1
 1109 946 l 1,16,17
 1088 1013 1088 1013 1065 1044 c 0,18,19
 1027 1096 1027 1096 972 1124 c 128,-1,20
 917 1152 917 1152 849 1152 c 0,21,22
 695 1152 695 1152 613 1028 c 0,23,24
 551 936 551 936 551 739 c 0,25,26
 551 495 551 495 625 404.5 c 128,-1,27
 699 314 699 314 833 314 c 0,28,29
 963 314 963 314 1029.5 387 c 128,-1,30
 1096 460 1096 460 1126 599 c 1,0,-1
EndSplineSet
Validated: 1
EndChar

StartChar: D
Encoding: 68 68 34
Width: 1593
GlyphClass: 2
Flags: W
LayerCount: 2
Fore
SplineSet
156 1466 m 1,0,-1
 829 1466 l 2,1,2
 1028 1466 1028 1466 1150.5 1412 c 128,-1,3
 1273 1358 1273 1358 1353 1257 c 128,-1,4
 1433 1156 1433 1156 1469 1022 c 128,-1,5
 1505 888 1505 888 1505 738 c 0,6,7
 1505 503 1505 503 1451.5 373.5 c 128,-1,8
 1398 244 1398 244 1303 156.5 c 128,-1,9
 1208 69 1208 69 1099 40 c 0,10,11
 950 0 950 0 829 0 c 2,12,-1
 156 0 l 1,13,-1
 156 1466 l 1,0,-1
609 1134 m 1,14,-1
 609 333 l 1,15,-1
 720 333 l 2,16,17
 862 333 862 333 922 364.5 c 128,-1,18
 982 396 982 396 1016 474.5 c 128,-1,19
 1050 553 1050 553 1050 729 c 0,20,21
 1050 962 1050 962 974 1048 c 128,-1,22
 898 1134 898 1134 722 1134 c 2,23,-1
 609 1134 l 1,14,-1
EndSplineSet
Validated: 1
EndChar

StartChar: E
Encoding: 69 69 35
Width: 1479
GlyphClass: 2
Flags: W
LayerCount: 2
Fore
SplineSet
149 1466 m 1,0,-1
 1363 1466 l 1,1,-1
 1363 1153 l 1,2,-1
 603 1153 l 1,3,-1
 603 920 l 1,4,-1
 1308 920 l 1,5,-1
 1308 621 l 1,6,-1
 603 621 l 1,7,-1
 603 332 l 1,8,-1
 1385 332 l 1,9,-1
 1385 0 l 1,10,-1
 149 0 l 1,11,-1
 149 1466 l 1,0,-1
EndSplineSet
Validated: 1
EndChar

StartChar: F
Encoding: 70 70 36
Width: 1366
GlyphClass: 2
Flags: W
LayerCount: 2
Fore
SplineSet
152 1466 m 1,0,-1
 1272 1466 l 1,1,-1
 1272 1151 l 1,2,-1
 607 1151 l 1,3,-1
 607 895 l 1,4,-1
 1175 895 l 1,5,-1
 1175 599 l 1,6,-1
 607 599 l 1,7,-1
 607 0 l 1,8,-1
 152 0 l 1,9,-1
 152 1466 l 1,0,-1
EndSplineSet
Validated: 1
EndChar

StartChar: G
Encoding: 71 71 37
Width: 1706
GlyphClass: 2
Flags: W
LayerCount: 2
Fore
SplineSet
887 531 m 1,0,-1
 887 836 l 1,1,-1
 1587 836 l 1,2,-1
 1587 211 l 1,3,4
 1386 74 1386 74 1231.5 24.5 c 128,-1,5
 1077 -25 1077 -25 865 -25 c 0,6,7
 604 -25 604 -25 439.5 64 c 128,-1,8
 275 153 275 153 184.5 329 c 128,-1,9
 94 505 94 505 94 733 c 0,10,11
 94 973 94 973 193 1150.5 c 128,-1,12
 292 1328 292 1328 483 1420 c 0,13,14
 632 1491 632 1491 884 1491 c 0,15,16
 1127 1491 1127 1491 1247.5 1447 c 128,-1,17
 1368 1403 1368 1403 1447.5 1310.5 c 128,-1,18
 1527 1218 1527 1218 1567 1076 c 1,19,-1
 1130 998 l 1,20,21
 1103 1081 1103 1081 1038.5 1125 c 128,-1,22
 974 1169 974 1169 874 1169 c 0,23,24
 725 1169 725 1169 636.5 1065.5 c 128,-1,25
 548 962 548 962 548 738 c 0,26,27
 548 500 548 500 637.5 398 c 128,-1,28
 727 296 727 296 887 296 c 0,29,30
 963 296 963 296 1032 318 c 128,-1,31
 1101 340 1101 340 1190 393 c 1,32,-1
 1190 531 l 1,33,-1
 887 531 l 1,0,-1
EndSplineSet
Validated: 1
EndChar

StartChar: H
Encoding: 72 72 38
Width: 1706
GlyphClass: 2
Flags: W
LayerCount: 2
Fore
SplineSet
152 1466 m 1,0,-1
 605 1466 l 1,1,-1
 605 953 l 1,2,-1
 1100 953 l 1,3,-1
 1100 1466 l 1,4,-1
 1555 1466 l 1,5,-1
 1555 0 l 1,6,-1
 1100 0 l 1,7,-1
 1100 593 l 1,8,-1
 605 593 l 1,9,-1
 605 0 l 1,10,-1
 152 0 l 1,11,-1
 152 1466 l 1,0,-1
EndSplineSet
Validated: 1
EndChar

StartChar: I
Encoding: 73 73 39
Width: 797
GlyphClass: 2
Flags: W
LayerCount: 2
Fore
SplineSet
168 1466 m 1,0,-1
 622 1466 l 1,1,-1
 622 0 l 1,2,-1
 168 0 l 1,3,-1
 168 1466 l 1,0,-1
EndSplineSet
Validated: 1
EndChar

StartChar: J
Encoding: 74 74 40
Width: 1366
GlyphClass: 2
Flags: W
LayerCount: 2
Fore
SplineSet
760 1466 m 1,0,-1
 1214 1466 l 1,1,-1
 1214 669 l 2,2,3
 1214 418 1214 418 1169.5 287 c 128,-1,4
 1125 156 1125 156 990.5 65 c 128,-1,5
 856 -26 856 -26 646 -26 c 0,6,7
 424 -26 424 -26 302 34 c 128,-1,8
 180 94 180 94 113.5 209.5 c 128,-1,9
 47 325 47 325 35 495 c 1,10,-1
 468 554 l 1,11,12
 469 457 469 457 485 410 c 128,-1,13
 501 363 501 363 539 334 c 0,14,15
 565 315 565 315 613 315 c 0,16,17
 689 315 689 315 724.5 371.5 c 128,-1,18
 760 428 760 428 760 562 c 2,19,-1
 760 1466 l 1,0,-1
EndSplineSet
Validated: 1
EndChar

StartChar: K
Encoding: 75 75 41
Width: 1706
GlyphClass: 2
Flags: W
LayerCount: 2
Fore
SplineSet
152 1466 m 1,0,-1
 605 1466 l 1,1,-1
 605 912 l 1,2,-1
 1080 1466 l 1,3,-1
 1682 1466 l 1,4,-1
 1148 913 l 1,5,-1
 1706 0 l 1,6,-1
 1148 0 l 1,7,-1
 839 603 l 1,8,-1
 605 358 l 1,9,-1
 605 0 l 1,10,-1
 152 0 l 1,11,-1
 152 1466 l 1,0,-1
EndSplineSet
Validated: 1
EndChar

StartChar: L
Encoding: 76 76 42
Width: 1366
GlyphClass: 2
Flags: W
LayerCount: 2
Fore
SplineSet
150 1466 m 1,0,-1
 603 1466 l 1,1,-1
 603 361 l 1,2,-1
 1310 361 l 1,3,-1
 1310 0 l 1,4,-1
 150 0 l 1,5,-1
 150 1466 l 1,0,-1
EndSplineSet
Validated: 1
EndChar

StartChar: M
Encoding: 77 77 43
Width: 1933
GlyphClass: 2
Flags: W
LayerCount: 2
Fore
SplineSet
145 1466 m 1,0,-1
 741 1466 l 1,1,-1
 971 574 l 1,2,-1
 1200 1466 l 1,3,-1
 1794 1466 l 1,4,-1
 1794 0 l 1,5,-1
 1424 0 l 1,6,-1
 1424 1118 l 1,7,-1
 1137 0 l 1,8,-1
 802 0 l 1,9,-1
 516 1118 l 1,10,-1
 516 0 l 1,11,-1
 145 0 l 1,12,-1
 145 1466 l 1,0,-1
EndSplineSet
Validated: 1
EndChar

StartChar: N
Encoding: 78 78 44
Width: 1706
GlyphClass: 2
Flags: W
LayerCount: 2
Fore
SplineSet
153 1466 m 1,0,-1
 576 1466 l 1,1,-1
 1128 655 l 1,2,-1
 1128 1466 l 1,3,-1
 1555 1466 l 1,4,-1
 1555 0 l 1,5,-1
 1128 0 l 1,6,-1
 579 805 l 1,7,-1
 579 0 l 1,8,-1
 153 0 l 1,9,-1
 153 1466 l 1,0,-1
EndSplineSet
Validated: 1
EndChar

StartChar: O
Encoding: 79 79 45
Width: 1706
GlyphClass: 2
Flags: W
LayerCount: 2
Fore
SplineSet
93 732 m 0,0,1
 93 1091 93 1091 293 1291 c 128,-1,2
 493 1491 493 1491 850 1491 c 0,3,4
 1216 1491 1216 1491 1414 1294.5 c 128,-1,5
 1612 1098 1612 1098 1612 744 c 0,6,7
 1612 487 1612 487 1525.5 322.5 c 128,-1,8
 1439 158 1439 158 1275.5 66.5 c 128,-1,9
 1112 -25 1112 -25 868 -25 c 0,10,11
 620 -25 620 -25 457.5 54 c 128,-1,12
 295 133 295 133 194 304 c 128,-1,13
 93 475 93 475 93 732 c 0,0,1
546 730 m 0,14,15
 546 508 546 508 628.5 411 c 128,-1,16
 711 314 711 314 853 314 c 0,17,18
 999 314 999 314 1079 409 c 128,-1,19
 1159 504 1159 504 1159 750 c 0,20,21
 1159 957 1159 957 1075.5 1052.5 c 128,-1,22
 992 1148 992 1148 849 1148 c 0,23,24
 712 1148 712 1148 629 1051 c 128,-1,25
 546 954 546 954 546 730 c 0,14,15
EndSplineSet
Validated: 1
EndChar

StartChar: P
Encoding: 80 80 46
Width: 1479
GlyphClass: 2
Flags: W
LayerCount: 2
Fore
SplineSet
148 1466 m 1,0,-1
 901 1466 l 2,1,2
 1147 1466 1147 1466 1269.5 1349 c 128,-1,3
 1392 1232 1392 1232 1392 1016 c 0,4,5
 1392 794 1392 794 1258.5 669 c 128,-1,6
 1125 544 1125 544 851 544 c 2,7,-1
 603 544 l 1,8,-1
 603 0 l 1,9,-1
 148 0 l 1,10,-1
 148 1466 l 1,0,-1
603 841 m 1,11,-1
 714 841 l 2,12,13
 845 841 845 841 898 886.5 c 128,-1,14
 951 932 951 932 951 1003 c 0,15,16
 951 1072 951 1072 905 1120 c 128,-1,17
 859 1168 859 1168 732 1168 c 2,18,-1
 603 1168 l 1,19,-1
 603 841 l 1,11,-1
EndSplineSet
Validated: 1
EndChar

StartChar: Q
Encoding: 81 81 47
Width: 1706
GlyphClass: 2
Flags: W
LayerCount: 2
Fore
SplineSet
1452 214 m 1,0,1
 1537 155 1537 155 1563 140 c 0,2,3
 1602 118 1602 118 1668 89 c 1,4,-1
 1542 -165 l 1,5,6
 1447 -119 1447 -119 1354 -55.5 c 128,-1,7
 1261 8 1261 8 1224 40 c 1,8,9
 1074 -25 1074 -25 848 -25 c 0,10,11
 514 -25 514 -25 321 149 c 0,12,13
 93 355 93 355 93 728 c 0,14,15
 93 1090 93 1090 292.5 1290.5 c 128,-1,16
 492 1491 492 1491 850 1491 c 0,17,18
 1215 1491 1215 1491 1413.5 1295 c 128,-1,19
 1612 1099 1612 1099 1612 734 c 0,20,21
 1612 409 1612 409 1452 214 c 1,0,1
1105 446 m 1,22,23
 1159 543 1159 543 1159 736 c 0,24,25
 1159 958 1159 958 1076.5 1053 c 128,-1,26
 994 1148 994 1148 849 1148 c 0,27,28
 714 1148 714 1148 630 1051 c 128,-1,29
 546 954 546 954 546 748 c 0,30,31
 546 508 546 508 628 411 c 128,-1,32
 710 314 710 314 853 314 c 0,33,34
 899 314 899 314 940 323 c 1,35,36
 883 378 883 378 760 427 c 1,37,-1
 831 590 l 1,38,39
 891 579 891 579 924.5 563 c 128,-1,40
 958 547 958 547 1055 479 c 0,41,42
 1078 463 1078 463 1105 446 c 1,22,23
EndSplineSet
Validated: 1
EndChar

StartChar: R
Encoding: 82 82 48
Width: 1593
GlyphClass: 2
Flags: W
LayerCount: 2
Fore
SplineSet
156 0 m 1,0,-1
 156 1466 l 1,1,-1
 911 1466 l 2,2,3
 1121 1466 1121 1466 1232 1430 c 128,-1,4
 1343 1394 1343 1394 1411 1296.5 c 128,-1,5
 1479 1199 1479 1199 1479 1059 c 0,6,7
 1479 937 1479 937 1427 848.5 c 128,-1,8
 1375 760 1375 760 1284 705 c 0,9,10
 1226 670 1226 670 1125 647 c 1,11,12
 1206 620 1206 620 1243 593 c 0,13,14
 1268 575 1268 575 1315.5 516 c 128,-1,15
 1363 457 1363 457 1379 425 c 2,16,-1
 1598 0 l 1,17,-1
 1086 0 l 1,18,-1
 844 448 l 2,19,20
 798 535 798 535 762 561 c 0,21,22
 713 595 713 595 651 595 c 2,23,-1
 611 595 l 1,24,-1
 611 0 l 1,25,-1
 156 0 l 1,0,-1
611 872 m 1,26,-1
 802 872 l 2,27,28
 833 872 833 872 922 892 c 0,29,30
 967 901 967 901 995.5 938 c 128,-1,31
 1024 975 1024 975 1024 1023 c 0,32,33
 1024 1094 1024 1094 979 1132 c 128,-1,34
 934 1170 934 1170 810 1170 c 2,35,-1
 611 1170 l 1,36,-1
 611 872 l 1,26,-1
EndSplineSet
Validated: 1
EndChar

StartChar: S
Encoding: 83 83 49
Width: 1479
GlyphClass: 2
Flags: W
LayerCount: 2
Fore
SplineSet
71 485 m 1,0,-1
 502 512 l 1,1,2
 516 407 516 407 559 352 c 0,3,4
 629 263 629 263 759 263 c 0,5,6
 856 263 856 263 908.5 308.5 c 128,-1,7
 961 354 961 354 961 414 c 0,8,9
 961 471 961 471 911 516 c 256,10,11
 861 561 861 561 679 601 c 0,12,13
 381 668 381 668 254 779 c 0,14,15
 126 890 126 890 126 1062 c 0,16,17
 126 1175 126 1175 191.5 1275.5 c 128,-1,18
 257 1376 257 1376 388.5 1433.5 c 128,-1,19
 520 1491 520 1491 749 1491 c 0,20,21
 1030 1491 1030 1491 1177.5 1386.5 c 128,-1,22
 1325 1282 1325 1282 1353 1054 c 1,23,-1
 926 1029 l 1,24,25
 909 1128 909 1128 854.5 1173 c 128,-1,26
 800 1218 800 1218 704 1218 c 0,27,28
 625 1218 625 1218 585 1184.5 c 128,-1,29
 545 1151 545 1151 545 1103 c 0,30,31
 545 1068 545 1068 578 1040 c 0,32,33
 610 1011 610 1011 730 986 c 0,34,35
 1027 922 1027 922 1155.5 856.5 c 128,-1,36
 1284 791 1284 791 1342.5 694 c 128,-1,37
 1401 597 1401 597 1401 477 c 0,38,39
 1401 336 1401 336 1323 217 c 128,-1,40
 1245 98 1245 98 1105 36.5 c 128,-1,41
 965 -25 965 -25 752 -25 c 0,42,43
 378 -25 378 -25 234 119 c 128,-1,44
 90 263 90 263 71 485 c 1,0,-1
EndSplineSet
Validated: 1
EndChar

StartChar: T
Encoding: 84 84 50
Width: 1479
GlyphClass: 2
Flags: W
LayerCount: 2
Fore
SplineSet
47 1466 m 1,0,-1
 1424 1466 l 1,1,-1
 1424 1104 l 1,2,-1
 962 1104 l 1,3,-1
 962 0 l 1,4,-1
 509 0 l 1,5,-1
 509 1104 l 1,6,-1
 47 1104 l 1,7,-1
 47 1466 l 1,0,-1
EndSplineSet
Validated: 1
EndChar

StartChar: U
Encoding: 85 85 51
Width: 1706
GlyphClass: 2
Flags: W
LayerCount: 2
Fore
SplineSet
1104 1466 m 1,0,-1
 1556 1466 l 1,1,-1
 1556 592 l 2,2,3
 1556 462 1556 462 1515.5 346.5 c 128,-1,4
 1475 231 1475 231 1388.5 144.5 c 128,-1,5
 1302 58 1302 58 1207 23 c 0,6,7
 1075 -26 1075 -26 890 -26 c 0,8,9
 783 -26 783 -26 656.5 -11 c 128,-1,10
 530 4 530 4 445 48.5 c 128,-1,11
 360 93 360 93 289.5 175 c 128,-1,12
 219 257 219 257 193 344 c 0,13,14
 151 484 151 484 151 592 c 2,15,-1
 151 1466 l 1,16,-1
 603 1466 l 1,17,-1
 603 571 l 2,18,19
 603 451 603 451 669.5 383.5 c 128,-1,20
 736 316 736 316 854 316 c 0,21,22
 971 316 971 316 1037.5 382.5 c 128,-1,23
 1104 449 1104 449 1104 571 c 2,24,-1
 1104 1466 l 1,0,-1
EndSplineSet
Validated: 1
EndChar

StartChar: V
Encoding: 86 86 52
Width: 1593
GlyphClass: 2
Flags: W
LayerCount: 2
Fore
SplineSet
5 1466 m 1,0,-1
 479 1466 l 1,1,-1
 809 411 l 1,2,-1
 1134 1466 l 1,3,-1
 1594 1466 l 1,4,-1
 1050 0 l 1,5,-1
 559 0 l 1,6,-1
 5 1466 l 1,0,-1
EndSplineSet
Validated: 1
EndChar

StartChar: W
Encoding: 87 87 53
Width: 2048
GlyphClass: 2
Flags: W
LayerCount: 2
Fore
SplineSet
-1 1466 m 1,0,-1
 429 1466 l 1,1,-1
 584 647 l 1,2,-1
 810 1466 l 1,3,-1
 1239 1466 l 1,4,-1
 1466 647 l 1,5,-1
 1621 1466 l 1,6,-1
 2049 1466 l 1,7,-1
 1726 0 l 1,8,-1
 1282 0 l 1,9,-1
 1025 923 l 1,10,-1
 769 0 l 1,11,-1
 325 0 l 1,12,-1
 -1 1466 l 1,0,-1
EndSplineSet
Validated: 1
EndChar

StartChar: X
Encoding: 88 88 54
Width: 1593
GlyphClass: 2
Flags: W
LayerCount: 2
Fore
SplineSet
49 1466 m 1,0,-1
 548 1466 l 1,1,-1
 808 1015 l 1,2,-1
 1060 1466 l 1,3,-1
 1554 1466 l 1,4,-1
 1098 756 l 1,5,-1
 1597 0 l 1,6,-1
 1088 0 l 1,7,-1
 799 471 l 1,8,-1
 509 0 l 1,9,-1
 3 0 l 1,10,-1
 509 764 l 1,11,-1
 49 1466 l 1,0,-1
EndSplineSet
Validated: 1
EndChar

StartChar: Y
Encoding: 89 89 55
Width: 1593
GlyphClass: 2
Flags: W
LayerCount: 2
Fore
SplineSet
2 1466 m 1,0,-1
 505 1466 l 1,1,-1
 801 971 l 1,2,-1
 1097 1466 l 1,3,-1
 1597 1466 l 1,4,-1
 1027 614 l 1,5,-1
 1027 0 l 1,6,-1
 573 0 l 1,7,-1
 573 614 l 1,8,-1
 2 1466 l 1,0,-1
EndSplineSet
Validated: 1
EndChar

StartChar: Z
Encoding: 90 90 56
Width: 1479
GlyphClass: 2
Flags: W
LayerCount: 2
Fore
SplineSet
113 1466 m 1,0,-1
 1395 1466 l 1,1,-1
 1395 1173 l 1,2,-1
 573 315 l 1,3,-1
 1425 315 l 1,4,-1
 1425 0 l 1,5,-1
 34 0 l 1,6,-1
 34 304 l 1,7,-1
 847 1153 l 1,8,-1
 113 1153 l 1,9,-1
 113 1466 l 1,0,-1
EndSplineSet
Validated: 1
EndChar

StartChar: bracketleft
Encoding: 91 91 57
Width: 797
GlyphClass: 2
Flags: W
LayerCount: 2
Fore
SplineSet
135 1466 m 1,0,-1
 750 1466 l 1,1,-1
 750 1150 l 1,2,-1
 507 1150 l 1,3,-1
 507 -91 l 1,4,-1
 750 -91 l 1,5,-1
 750 -407 l 1,6,-1
 135 -407 l 1,7,-1
 135 1466 l 1,0,-1
EndSplineSet
Validated: 1
EndChar

StartChar: asciicircum
Encoding: 94 94 60
Width: 1352
GlyphClass: 2
Flags: W
LayerCount: 2
Fore
SplineSet
533 1491 m 1,0,-1
 812 1491 l 1,1,-1
 1220 678 l 1,2,-1
 867 678 l 1,3,-1
 674 1169 l 1,4,-1
 479 678 l 1,5,-1
 125 678 l 1,6,-1
 533 1491 l 1,0,-1
EndSplineSet
Validated: 1
EndChar

StartChar: underscore
Encoding: 95 95 61
Width: 1024
GlyphClass: 2
Flags: W
LayerCount: 2
Fore
SplineSet
-12 -154 m 1,0,-1
 1036 -154 l 1,1,-1
 1036 -256 l 1,2,-1
 -12 -256 l 1,3,-1
 -12 -154 l 1,0,-1
EndSplineSet
Validated: 1
EndChar

StartChar: grave
Encoding: 96 96 62
Width: 682
GlyphClass: 2
Flags: W
LayerCount: 2
Fore
SplineSet
1 1491 m 1,0,-1
 348 1491 l 1,1,-1
 512 1193 l 1,2,-1
 320 1193 l 1,3,-1
 1 1491 l 1,0,-1
EndSplineSet
Validated: 1
EndChar

StartChar: a
Encoding: 97 97 63
Width: 1366
GlyphClass: 2
Flags: W
LayerCount: 2
Fore
SplineSet
494 718 m 1,0,-1
 105 759 l 1,1,2
 127 861 127 861 168.5 919.5 c 128,-1,3
 210 978 210 978 288 1021 c 0,4,5
 344 1052 344 1052 442 1069 c 128,-1,6
 540 1086 540 1086 654 1086 c 0,7,8
 837 1086 837 1086 948 1065.5 c 128,-1,9
 1059 1045 1059 1045 1133 980 c 0,10,11
 1185 935 1185 935 1215 852.5 c 128,-1,12
 1245 770 1245 770 1245 695 c 2,13,-1
 1245 226 l 2,14,15
 1245 151 1245 151 1254.5 108.5 c 128,-1,16
 1264 66 1264 66 1296 0 c 1,17,-1
 914 0 l 1,18,19
 891 41 891 41 884 62.5 c 128,-1,20
 877 84 877 84 870 130 c 1,21,22
 790 53 790 53 711 20 c 0,23,24
 603 -24 603 -24 460 -24 c 0,25,26
 270 -24 270 -24 171.5 64 c 128,-1,27
 73 152 73 152 73 281 c 0,28,29
 73 402 73 402 144 480 c 256,30,31
 215 558 215 558 406 596 c 0,32,33
 635 642 635 642 703 660.5 c 128,-1,34
 771 679 771 679 847 709 c 1,35,36
 847 784 847 784 816 814 c 128,-1,37
 785 844 785 844 707 844 c 0,38,39
 607 844 607 844 557 812 c 0,40,41
 518 787 518 787 494 718 c 1,0,-1
847 504 m 1,42,43
 763 474 763 474 672 451 c 0,44,45
 548 418 548 418 515 386 c 0,46,47
 481 353 481 353 481 311 c 0,48,49
 481 263 481 263 514.5 232.5 c 128,-1,50
 548 202 548 202 613 202 c 0,51,52
 681 202 681 202 739.5 235 c 128,-1,53
 798 268 798 268 822.5 315.5 c 128,-1,54
 847 363 847 363 847 439 c 2,55,-1
 847 504 l 1,42,43
EndSplineSet
Validated: 1
EndChar

StartChar: b
Encoding: 98 98 64
Width: 1366
GlyphClass: 2
Flags: W
LayerCount: 2
Fore
SplineSet
125 1466 m 1,0,-1
 536 1466 l 1,1,-1
 536 958 l 1,2,3
 597 1022 597 1022 674.5 1054 c 128,-1,4
 752 1086 752 1086 846 1086 c 0,5,6
 1040 1086 1040 1086 1167 946.5 c 128,-1,7
 1294 807 1294 807 1294 546 c 0,8,9
 1294 372 1294 372 1236 239.5 c 128,-1,10
 1178 107 1178 107 1075.5 41.5 c 128,-1,11
 973 -24 973 -24 848 -24 c 0,12,13
 741 -24 741 -24 652 22 c 0,14,15
 585 58 585 58 506 157 c 1,16,-1
 506 0 l 1,17,-1
 125 0 l 1,18,-1
 125 1466 l 1,0,-1
533 534 m 0,19,20
 533 397 533 397 584.5 335.5 c 128,-1,21
 636 274 636 274 715 274 c 0,22,23
 788 274 788 274 837.5 334.5 c 128,-1,24
 887 395 887 395 887 538 c 0,25,26
 887 664 887 664 838.5 723 c 128,-1,27
 790 782 790 782 721 782 c 0,28,29
 638 782 638 782 585.5 720.5 c 128,-1,30
 533 659 533 659 533 534 c 0,19,20
EndSplineSet
Validated: 1
EndChar

StartChar: c
Encoding: 99 99 65
Width: 1366
GlyphClass: 2
Flags: W
LayerCount: 2
Fore
SplineSet
915 415 m 1,0,-1
 1302 371 l 1,1,2
 1270 250 1270 250 1197 161.5 c 128,-1,3
 1124 73 1124 73 1010.5 24 c 128,-1,4
 897 -25 897 -25 722 -25 c 0,5,6
 553 -25 553 -25 440.5 6.5 c 128,-1,7
 328 38 328 38 247 108.5 c 128,-1,8
 166 179 166 179 120 274 c 128,-1,9
 74 369 74 369 74 526 c 0,10,11
 74 690 74 690 130 799 c 0,12,13
 171 879 171 879 242 942.5 c 128,-1,14
 313 1006 313 1006 388 1037 c 0,15,16
 507 1086 507 1086 693 1086 c 0,17,18
 953 1086 953 1086 1089.5 993 c 128,-1,19
 1226 900 1226 900 1281 721 c 1,20,-1
 898 670 l 1,21,22
 880 738 880 738 832.5 772.5 c 128,-1,23
 785 807 785 807 705 807 c 0,24,25
 604 807 604 807 541.5 734.5 c 128,-1,26
 479 662 479 662 479 515 c 0,27,28
 479 384 479 384 541 316 c 128,-1,29
 603 248 603 248 699 248 c 0,30,31
 779 248 779 248 833.5 289 c 128,-1,32
 888 330 888 330 915 415 c 1,0,-1
EndSplineSet
Validated: 1
EndChar

StartChar: d
Encoding: 100 100 66
Width: 1366
GlyphClass: 2
Flags: W
LayerCount: 2
Fore
SplineSet
1241 1466 m 1,0,-1
 1241 0 l 1,1,-1
 860 0 l 1,2,-1
 860 157 l 1,3,4
 780 57 780 57 714 22 c 0,5,6
 626 -24 626 -24 518 -24 c 0,7,8
 301 -24 301 -24 186.5 141 c 128,-1,9
 72 306 72 306 72 542 c 0,10,11
 72 806 72 806 198.5 946 c 128,-1,12
 325 1086 325 1086 520 1086 c 0,13,14
 615 1086 615 1086 692.5 1054 c 128,-1,15
 770 1022 770 1022 830 958 c 1,16,-1
 830 1466 l 1,17,-1
 1241 1466 l 1,0,-1
833 534 m 0,18,19
 833 659 833 659 780 720.5 c 128,-1,20
 727 782 727 782 646 782 c 0,21,22
 575 782 575 782 527 723 c 128,-1,23
 479 664 479 664 479 525 c 0,24,25
 479 395 479 395 528.5 334.5 c 128,-1,26
 578 274 578 274 651 274 c 0,27,28
 729 274 729 274 781 335 c 128,-1,29
 833 396 833 396 833 534 c 0,18,19
EndSplineSet
Validated: 1
EndChar

StartChar: e
Encoding: 101 101 67
Width: 1366
GlyphClass: 2
Flags: W
LayerCount: 2
Fore
SplineSet
1302 430 m 1,0,-1
 486 430 l 1,1,2
 497 332 497 332 539 284 c 0,3,4
 598 215 598 215 693 215 c 0,5,6
 753 215 753 215 807 245 c 0,7,8
 840 264 840 264 878 312 c 1,9,-1
 1279 275 l 1,10,11
 1187 115 1187 115 1057 45.5 c 128,-1,12
 927 -24 927 -24 684 -24 c 0,13,14
 473 -24 473 -24 352 35.5 c 128,-1,15
 231 95 231 95 151.5 224.5 c 128,-1,16
 72 354 72 354 72 529 c 0,17,18
 72 778 72 778 231.5 932 c 128,-1,19
 391 1086 391 1086 672 1086 c 0,20,21
 900 1086 900 1086 1032 1017 c 128,-1,22
 1164 948 1164 948 1233 817 c 128,-1,23
 1302 686 1302 686 1302 476 c 2,24,-1
 1302 430 l 1,0,-1
888 625 m 1,25,26
 876 743 876 743 824.5 794 c 128,-1,27
 773 845 773 845 689 845 c 0,28,29
 592 845 592 845 534 768 c 0,30,31
 497 720 497 720 487 625 c 1,32,-1
 888 625 l 1,25,26
EndSplineSet
Validated: 1
EndChar

StartChar: f
Encoding: 102 102 68
Width: 797
GlyphClass: 2
Flags: W
LayerCount: 2
Fore
SplineSet
576 1062 m 1,0,-1
 770 1062 l 1,1,-1
 770 764 l 1,2,-1
 576 764 l 1,3,-1
 576 0 l 1,4,-1
 168 0 l 1,5,-1
 168 764 l 1,6,-1
 16 764 l 1,7,-1
 16 1062 l 1,8,-1
 168 1062 l 1,9,-1
 168 1110 l 2,10,11
 168 1175 168 1175 182 1253 c 128,-1,12
 196 1331 196 1331 234.5 1380.5 c 128,-1,13
 273 1430 273 1430 342.5 1460.5 c 128,-1,14
 412 1491 412 1491 546 1491 c 0,15,16
 653 1491 653 1491 857 1466 c 1,17,-1
 812 1220 l 1,18,19
 739 1232 739 1232 694 1232 c 0,20,21
 639 1232 639 1232 615 1213.5 c 128,-1,22
 591 1195 591 1195 581 1155 c 0,23,24
 576 1133 576 1133 576 1062 c 1,0,-1
EndSplineSet
Validated: 1
EndChar

StartChar: g
Encoding: 103 103 69
Width: 1366
GlyphClass: 2
Flags: W
LayerCount: 2
Fore
SplineSet
862 1062 m 1,0,-1
 1243 1062 l 1,1,-1
 1243 59 l 1,2,-1
 1244 12 l 2,3,4
 1244 -88 1244 -88 1201.5 -178.5 c 128,-1,5
 1159 -269 1159 -269 1088.5 -325 c 128,-1,6
 1018 -381 1018 -381 909.5 -406 c 128,-1,7
 801 -431 801 -431 661 -431 c 0,8,9
 341 -431 341 -431 221.5 -335 c 128,-1,10
 102 -239 102 -239 102 -78 c 0,11,12
 102 -58 102 -58 104 -24 c 1,13,-1
 499 -69 l 1,14,15
 514 -124 514 -124 545 -145 c 0,16,17
 590 -176 590 -176 658 -176 c 0,18,19
 746 -176 746 -176 789.5 -129 c 128,-1,20
 833 -82 833 -82 833 35 c 2,21,-1
 833 196 l 1,22,23
 773 125 773 125 713 93 c 0,24,25
 619 43 619 43 510 43 c 0,26,27
 297 43 297 43 166 229 c 0,28,29
 73 361 73 361 73 578 c 0,30,31
 73 826 73 826 193 956 c 128,-1,32
 313 1086 313 1086 507 1086 c 0,33,34
 631 1086 631 1086 711.5 1044 c 128,-1,35
 792 1002 792 1002 862 905 c 1,36,-1
 862 1062 l 1,0,-1
479 547 m 0,37,38
 479 432 479 432 528 376.5 c 128,-1,39
 577 321 577 321 657 321 c 0,40,41
 733 321 733 321 784.5 378.5 c 128,-1,42
 836 436 836 436 836 552 c 256,43,44
 836 668 836 668 782 729.5 c 128,-1,45
 728 791 728 791 650 791 c 256,46,47
 572 791 572 791 525.5 734.5 c 128,-1,48
 479 678 479 678 479 547 c 0,37,38
EndSplineSet
Validated: 1
EndChar

StartChar: h
Encoding: 104 104 70
Width: 1366
GlyphClass: 2
Flags: W
LayerCount: 2
Fore
SplineSet
123 1466 m 1,0,-1
 530 1466 l 1,1,-1
 530 926 l 1,2,3
 613 1012 613 1012 695 1049 c 128,-1,4
 777 1086 777 1086 889 1086 c 0,5,6
 1055 1086 1055 1086 1150.5 985 c 128,-1,7
 1246 884 1246 884 1246 675 c 2,8,-1
 1246 0 l 1,9,-1
 837 0 l 1,10,-1
 837 584 l 2,11,12
 837 684 837 684 800 725.5 c 128,-1,13
 763 767 763 767 696 767 c 0,14,15
 622 767 622 767 576 711 c 128,-1,16
 530 655 530 655 530 510 c 2,17,-1
 530 0 l 1,18,-1
 123 0 l 1,19,-1
 123 1466 l 1,0,-1
EndSplineSet
Validated: 1
EndChar

StartChar: i
Encoding: 105 105 71
Width: 682
GlyphClass: 2
Flags: W
LayerCount: 2
Fore
SplineSet
138 1466 m 1,0,-1
 545 1466 l 1,1,-1
 545 1189 l 1,2,-1
 138 1189 l 1,3,-1
 138 1466 l 1,0,-1
138 1062 m 1,4,-1
 545 1062 l 1,5,-1
 545 0 l 1,6,-1
 138 0 l 1,7,-1
 138 1062 l 1,4,-1
EndSplineSet
Validated: 1
EndChar

StartChar: j
Encoding: 106 106 72
Width: 682
GlyphClass: 2
Flags: W
LayerCount: 2
Fore
SplineSet
139 1466 m 1,0,-1
 547 1466 l 1,1,-1
 547 1186 l 1,2,-1
 139 1186 l 1,3,-1
 139 1466 l 1,0,-1
139 1062 m 1,4,-1
 547 1062 l 1,5,-1
 547 32 l 2,6,7
 547 -165 547 -165 518.5 -247 c 128,-1,8
 490 -329 490 -329 413 -380 c 128,-1,9
 336 -431 336 -431 193 -431 c 0,10,11
 75 -431 75 -431 -100 -396 c 1,12,-1
 -39 -100 l 1,13,14
 10 -110 10 -110 33 -110 c 0,15,16
 85 -110 85 -110 112 -74.5 c 128,-1,17
 139 -39 139 -39 139 67 c 2,18,-1
 139 1062 l 1,4,-1
EndSplineSet
Validated: 1
EndChar

StartChar: k
Encoding: 107 107 73
Width: 1366
GlyphClass: 2
Flags: W
LayerCount: 2
Fore
SplineSet
123 1466 m 1,0,-1
 539 1466 l 1,1,-1
 539 710 l 1,2,-1
 843 1062 l 1,3,-1
 1344 1062 l 1,4,-1
 963 690 l 1,5,-1
 1366 0 l 1,6,-1
 907 0 l 1,7,-1
 692 426 l 1,8,-1
 539 276 l 1,9,-1
 539 0 l 1,10,-1
 123 0 l 1,11,-1
 123 1466 l 1,0,-1
EndSplineSet
Validated: 1
EndChar

StartChar: l
Encoding: 108 108 74
Width: 682
GlyphClass: 2
Flags: W
LayerCount: 2
Fore
SplineSet
137 1466 m 1,0,-1
 545 1466 l 1,1,-1
 545 0 l 1,2,-1
 137 0 l 1,3,-1
 137 1466 l 1,0,-1
EndSplineSet
Validated: 1
EndChar

StartChar: m
Encoding: 109 109 75
Width: 2048
GlyphClass: 2
Flags: W
LayerCount: 2
Fore
SplineSet
126 1062 m 1,0,-1
 506 1062 l 1,1,-1
 506 907 l 1,2,3
 588 1004 588 1004 671.5 1045 c 128,-1,4
 755 1086 755 1086 873 1086 c 0,5,6
 1000 1086 1000 1086 1074 1041 c 128,-1,7
 1148 996 1148 996 1195 907 c 1,8,9
 1291 1011 1291 1011 1370 1048.5 c 128,-1,10
 1449 1086 1449 1086 1565 1086 c 0,11,12
 1736 1086 1736 1086 1832 984.5 c 128,-1,13
 1928 883 1928 883 1928 667 c 2,14,-1
 1928 0 l 1,15,-1
 1520 0 l 1,16,-1
 1520 605 l 2,17,18
 1520 677 1520 677 1492 712 c 0,19,20
 1451 767 1451 767 1390 767 c 0,21,22
 1318 767 1318 767 1274 715 c 128,-1,23
 1230 663 1230 663 1230 548 c 2,24,-1
 1230 0 l 1,25,-1
 822 0 l 1,26,-1
 822 585 l 2,27,28
 822 655 822 655 814 680 c 0,29,30
 801 720 801 720 769 744.5 c 128,-1,31
 737 769 737 769 694 769 c 0,32,33
 624 769 624 769 579 716 c 128,-1,34
 534 663 534 663 534 542 c 2,35,-1
 534 0 l 1,36,-1
 126 0 l 1,37,-1
 126 1062 l 1,0,-1
EndSplineSet
Validated: 1
EndChar

StartChar: n
Encoding: 110 110 76
Width: 1366
GlyphClass: 2
Flags: W
LayerCount: 2
Fore
SplineSet
123 1062 m 1,0,-1
 502 1062 l 1,1,-1
 502 889 l 1,2,3
 587 995 587 995 674 1040.5 c 128,-1,4
 761 1086 761 1086 886 1086 c 0,5,6
 1055 1086 1055 1086 1150.5 985.5 c 128,-1,7
 1246 885 1246 885 1246 675 c 2,8,-1
 1246 0 l 1,9,-1
 837 0 l 1,10,-1
 837 584 l 2,11,12
 837 684 837 684 800 725.5 c 128,-1,13
 763 767 763 767 696 767 c 0,14,15
 622 767 622 767 576 711 c 128,-1,16
 530 655 530 655 530 510 c 2,17,-1
 530 0 l 1,18,-1
 123 0 l 1,19,-1
 123 1062 l 1,0,-1
EndSplineSet
Validated: 1
EndChar

StartChar: o
Encoding: 111 111 77
Width: 1366
GlyphClass: 2
Flags: W
LayerCount: 2
Fore
SplineSet
73 528 m 0,0,1
 73 771 73 771 237 928.5 c 128,-1,2
 401 1086 401 1086 680 1086 c 0,3,4
 999 1086 999 1086 1162 901 c 0,5,6
 1293 752 1293 752 1293 534 c 0,7,8
 1293 289 1293 289 1130.5 132.5 c 128,-1,9
 968 -24 968 -24 681 -24 c 0,10,11
 425 -24 425 -24 267 106 c 0,12,13
 73 267 73 267 73 528 c 0,0,1
481 529 m 0,14,15
 481 387 481 387 538.5 319 c 128,-1,16
 596 251 596 251 683 251 c 0,17,18
 771 251 771 251 827.5 318 c 128,-1,19
 884 385 884 385 884 533 c 0,20,21
 884 671 884 671 827 738.5 c 128,-1,22
 770 806 770 806 686 806 c 0,23,24
 597 806 597 806 539 737.5 c 128,-1,25
 481 669 481 669 481 529 c 0,14,15
EndSplineSet
Validated: 1
EndChar

StartChar: p
Encoding: 112 112 78
Width: 1366
GlyphClass: 2
Flags: W
LayerCount: 2
Fore
SplineSet
125 -404 m 1,0,-1
 125 1062 l 1,1,-1
 506 1062 l 1,2,-1
 506 905 l 1,3,4
 585 1004 585 1004 651 1039 c 0,5,6
 740 1086 740 1086 848 1086 c 0,7,8
 1061 1086 1061 1086 1177.5 923 c 128,-1,9
 1294 760 1294 760 1294 520 c 0,10,11
 1294 255 1294 255 1167 115.5 c 128,-1,12
 1040 -24 1040 -24 846 -24 c 0,13,14
 752 -24 752 -24 674.5 8 c 128,-1,15
 597 40 597 40 536 103 c 1,16,-1
 536 -404 l 1,17,-1
 125 -404 l 1,0,-1
533 528 m 0,18,19
 533 402 533 402 586 341 c 128,-1,20
 639 280 639 280 720 280 c 0,21,22
 791 280 791 280 839 338.5 c 128,-1,23
 887 397 887 397 887 537 c 0,24,25
 887 666 887 666 837 726.5 c 128,-1,26
 787 787 787 787 715 787 c 0,27,28
 637 787 637 787 585 726 c 128,-1,29
 533 665 533 665 533 528 c 0,18,19
EndSplineSet
Validated: 1
EndChar

StartChar: q
Encoding: 113 113 79
Width: 1366
GlyphClass: 2
Flags: W
LayerCount: 2
Fore
SplineSet
1241 -404 m 1,0,-1
 830 -404 l 1,1,-1
 830 103 l 1,2,3
 770 40 770 40 692.5 8 c 128,-1,4
 615 -24 615 -24 520 -24 c 0,5,6
 326 -24 326 -24 199 115.5 c 128,-1,7
 72 255 72 255 72 515 c 0,8,9
 72 689 72 689 130 822 c 128,-1,10
 188 955 188 955 291 1020.5 c 128,-1,11
 394 1086 394 1086 518 1086 c 0,12,13
 625 1086 625 1086 715 1039 c 0,14,15
 781 1004 781 1004 860 905 c 1,16,-1
 860 1062 l 1,17,-1
 1241 1062 l 1,18,-1
 1241 -404 l 1,0,-1
833 528 m 0,19,20
 833 665 833 665 781.5 726 c 128,-1,21
 730 787 730 787 651 787 c 0,22,23
 578 787 578 787 528.5 726.5 c 128,-1,24
 479 666 479 666 479 524 c 0,25,26
 479 397 479 397 527.5 338.5 c 128,-1,27
 576 280 576 280 646 280 c 0,28,29
 728 280 728 280 780.5 341 c 128,-1,30
 833 402 833 402 833 528 c 0,19,20
EndSplineSet
Validated: 1
EndChar

StartChar: r
Encoding: 114 114 80
Width: 909
GlyphClass: 2
Flags: W
LayerCount: 2
Fore
SplineSet
127 1062 m 1,0,-1
 508 1062 l 1,1,-1
 508 888 l 1,2,3
 563 1001 563 1001 621.5 1043.5 c 128,-1,4
 680 1086 680 1086 766 1086 c 0,5,6
 856 1086 856 1086 963 1030 c 1,7,-1
 837 740 l 1,8,9
 765 770 765 770 723 770 c 0,10,11
 643 770 643 770 599 704 c 0,12,13
 536 611 536 611 536 356 c 2,14,-1
 536 0 l 1,15,-1
 127 0 l 1,16,-1
 127 1062 l 1,0,-1
EndSplineSet
Validated: 1
EndChar

StartChar: s
Encoding: 115 115 81
Width: 1251
GlyphClass: 2
Flags: W
LayerCount: 2
Fore
SplineSet
51 294 m 1,0,-1
 455 332 l 1,1,2
 480 260 480 260 525 229 c 128,-1,3
 570 198 570 198 645 198 c 0,4,5
 727 198 727 198 772 233 c 0,6,7
 807 259 807 259 807 298 c 0,8,9
 807 342 807 342 761 366 c 0,10,11
 728 383 728 383 586 408 c 0,12,13
 374 445 374 445 291.5 476.5 c 128,-1,14
 209 508 209 508 152.5 583 c 128,-1,15
 96 658 96 658 96 754 c 0,16,17
 96 859 96 859 157 935 c 128,-1,18
 218 1011 218 1011 325 1048.5 c 128,-1,19
 432 1086 432 1086 612 1086 c 0,20,21
 802 1086 802 1086 892.5 1057 c 128,-1,22
 983 1028 983 1028 1043.5 967 c 128,-1,23
 1104 906 1104 906 1144 802 c 1,24,-1
 758 764 l 1,25,26
 743 815 743 815 708 839 c 0,27,28
 660 871 660 871 592 871 c 0,29,30
 523 871 523 871 491.5 846.5 c 128,-1,31
 460 822 460 822 460 787 c 0,32,33
 460 748 460 748 500 728 c 256,34,35
 540 708 540 708 674 692 c 0,36,37
 877 669 877 669 976 628 c 128,-1,38
 1075 587 1075 587 1127.5 511 c 128,-1,39
 1180 435 1180 435 1180 344 c 0,40,41
 1180 252 1180 252 1124.5 165 c 128,-1,42
 1069 78 1069 78 949.5 26.5 c 128,-1,43
 830 -25 830 -25 624 -25 c 0,44,45
 333 -25 333 -25 209.5 58 c 128,-1,46
 86 141 86 141 51 294 c 1,0,-1
EndSplineSet
Validated: 1
EndChar

StartChar: t
Encoding: 116 116 82
Width: 909
GlyphClass: 2
Flags: W
LayerCount: 2
Fore
SplineSet
614 1466 m 1,0,-1
 614 1062 l 1,1,-1
 838 1062 l 1,2,-1
 838 765 l 1,3,-1
 614 765 l 1,4,-1
 614 388 l 2,5,6
 614 320 614 320 627 298 c 0,7,8
 647 264 647 264 697 264 c 0,9,10
 742 264 742 264 823 290 c 1,11,-1
 853 9 l 1,12,13
 702 -24 702 -24 571 -24 c 0,14,15
 419 -24 419 -24 347 15 c 128,-1,16
 275 54 275 54 240.5 133.5 c 128,-1,17
 206 213 206 213 206 391 c 2,18,-1
 206 765 l 1,19,-1
 56 765 l 1,20,-1
 56 1062 l 1,21,-1
 206 1062 l 1,22,-1
 206 1257 l 1,23,-1
 614 1466 l 1,0,-1
EndSplineSet
Validated: 1
EndChar

StartChar: u
Encoding: 117 117 83
Width: 1366
GlyphClass: 2
Flags: W
LayerCount: 2
Fore
SplineSet
1242 0 m 1,0,-1
 862 0 l 1,1,-1
 862 172 l 1,2,3
 777 66 777 66 690.5 21 c 128,-1,4
 604 -24 604 -24 478 -24 c 0,5,6
 310 -24 310 -24 214.5 76.5 c 128,-1,7
 119 177 119 177 119 386 c 2,8,-1
 119 1062 l 1,9,-1
 528 1062 l 1,10,-1
 528 478 l 2,11,12
 528 378 528 378 565 336 c 128,-1,13
 602 294 602 294 669 294 c 0,14,15
 742 294 742 294 788.5 350 c 128,-1,16
 835 406 835 406 835 551 c 2,17,-1
 835 1062 l 1,18,-1
 1242 1062 l 1,19,-1
 1242 0 l 1,0,-1
EndSplineSet
Validated: 1
EndChar

StartChar: v
Encoding: 118 118 84
Width: 1251
GlyphClass: 2
Flags: W
LayerCount: 2
Fore
SplineSet
2 1062 m 1,0,-1
 426 1062 l 1,1,-1
 632 389 l 1,2,-1
 845 1062 l 1,3,-1
 1256 1062 l 1,4,-1
 805 0 l 1,5,-1
 444 0 l 1,6,-1
 2 1062 l 1,0,-1
EndSplineSet
Validated: 1
EndChar

StartChar: w
Encoding: 119 119 85
Width: 1933
GlyphClass: 2
Flags: W
LayerCount: 2
Fore
SplineSet
3 1062 m 1,0,-1
 397 1062 l 1,1,-1
 568 393 l 1,2,-1
 784 1062 l 1,3,-1
 1151 1062 l 1,4,-1
 1375 393 l 1,5,-1
 1546 1062 l 1,6,-1
 1937 1062 l 1,7,-1
 1546 0 l 1,8,-1
 1184 0 l 1,9,-1
 969 639 l 1,10,-1
 761 0 l 1,11,-1
 397 0 l 1,12,-1
 3 1062 l 1,0,-1
EndSplineSet
Validated: 1
EndChar

StartChar: x
Encoding: 120 120 86
Width: 1366
GlyphClass: 2
Flags: W
LayerCount: 2
Fore
SplineSet
31 1062 m 1,0,-1
 514 1062 l 1,1,-1
 683 766 l 1,2,-1
 879 1062 l 1,3,-1
 1328 1062 l 1,4,-1
 966 556 l 1,5,-1
 1354 0 l 1,6,-1
 879 0 l 1,7,-1
 683 342 l 1,8,-1
 452 0 l 1,9,-1
 11 0 l 1,10,-1
 397 556 l 1,11,-1
 31 1062 l 1,0,-1
EndSplineSet
Validated: 1
EndChar

StartChar: y
Encoding: 121 121 87
Width: 1251
GlyphClass: 2
Flags: W
LayerCount: 2
Fore
SplineSet
5 1062 m 1,0,-1
 435 1062 l 1,1,-1
 654 355 l 1,2,-1
 857 1062 l 1,3,-1
 1258 1062 l 1,4,-1
 837 -73 l 2,5,6
 765 -267 765 -267 690 -335 c 0,7,8
 584 -431 584 -431 367 -431 c 0,9,10
 279 -431 279 -431 95 -407 c 1,11,-1
 63 -123 l 1,12,13
 151 -151 151 -151 259 -151 c 0,14,15
 331 -151 331 -151 375.5 -118 c 128,-1,16
 420 -85 420 -85 451 0 c 1,17,-1
 5 1062 l 1,0,-1
EndSplineSet
Validated: 1
EndChar

StartChar: z
Encoding: 122 122 88
Width: 1139
GlyphClass: 2
Flags: W
LayerCount: 2
Fore
SplineSet
77 1062 m 1,0,-1
 1062 1062 l 1,1,-1
 1062 824 l 1,2,-1
 526 278 l 1,3,-1
 1095 278 l 1,4,-1
 1095 0 l 1,5,-1
 37 0 l 1,6,-1
 37 264 l 1,7,-1
 545 784 l 1,8,-1
 77 784 l 1,9,-1
 77 1062 l 1,0,-1
EndSplineSet
Validated: 1
EndChar

StartChar: braceleft
Encoding: 123 123 89
Width: 797
GlyphClass: 2
Flags: W
LayerCount: 2
Fore
SplineSet
774 1491 m 1,0,-1
 774 1163 l 1,1,-1
 729 1163 l 2,2,3
 666 1163 666 1163 634.5 1136.5 c 128,-1,4
 603 1110 603 1110 590 1055 c 0,5,6
 583 1025 583 1025 582 890.5 c 128,-1,7
 581 756 581 756 554 679 c 0,8,9
 534 620 534 620 497 584 c 0,10,11
 469 557 469 557 405 529 c 1,12,13
 472 498 472 498 504.5 464.5 c 128,-1,14
 537 431 537 431 560 362.5 c 128,-1,15
 583 294 583 294 583 144 c 0,16,17
 583 9 583 9 597 -32 c 128,-1,18
 611 -73 611 -73 643.5 -90 c 128,-1,19
 676 -107 676 -107 774 -107 c 1,20,-1
 774 -431 l 1,21,-1
 648 -431 l 2,22,23
 453 -431 453 -431 371 -388.5 c 128,-1,24
 289 -346 289 -346 254 -264.5 c 128,-1,25
 219 -183 219 -183 219 -20 c 0,26,27
 219 16 219 16 221 52 c 0,28,29
 222 74 222 74 222 97 c 0,30,31
 222 213 222 213 201 262 c 128,-1,32
 180 311 180 311 140.5 333 c 128,-1,33
 101 355 101 355 26 357 c 1,34,-1
 26 700 l 1,35,36
 103 700 103 700 141.5 724 c 128,-1,37
 180 748 180 748 200 797.5 c 128,-1,38
 220 847 220 847 220 965 c 2,39,-1
 220 999 l 2,40,41
 219 1022 219 1022 219 1045 c 0,42,43
 219 1222 219 1222 248.5 1301 c 128,-1,44
 278 1380 278 1380 330 1422 c 0,45,46
 369 1454 369 1454 436 1470 c 0,47,48
 525 1491 525 1491 639 1491 c 2,49,-1
 774 1491 l 1,0,-1
EndSplineSet
Validated: 1
EndChar

StartChar: bar
Encoding: 124 124 90
Width: 569
GlyphClass: 2
Flags: W
LayerCount: 2
Fore
SplineSet
160 1466 m 1,0,-1
 415 1466 l 1,1,-1
 415 -404 l 1,2,-1
 160 -404 l 1,3,-1
 160 1466 l 1,0,-1
EndSplineSet
Validated: 1
EndChar

StartChar: asciitilde
Encoding: 126 126 92
Width: 1352
GlyphClass: 2
Flags: W
LayerCount: 2
Fore
SplineSet
1246 972 m 1,0,-1
 1246 646 l 1,1,2
 1131 554 1131 554 1060 523 c 128,-1,3
 989 492 989 492 913 492 c 0,4,5
 855 492 855 492 796.5 509 c 128,-1,6
 738 526 738 526 613.5 589 c 128,-1,7
 489 652 489 652 417 652 c 0,8,9
 263 652 263 652 99 492 c 1,10,-1
 99 821 l 1,11,12
 192 904 192 904 273 939 c 128,-1,13
 354 974 354 974 450 974 c 0,14,15
 499 974 499 974 553 958.5 c 128,-1,16
 607 943 607 943 711.5 892 c 128,-1,17
 816 841 816 841 860 828 c 128,-1,18
 904 815 904 815 943 815 c 0,19,20
 1077 815 1077 815 1246 972 c 1,0,-1
EndSplineSet
Validated: 1
EndChar

